<svg xmlns="http://www.w3.org/2000/svg" width="48" height="48" fill="none" viewBox="0 0 48 48">
  <g clip-path="url(#a)">
    <path fill="#000" d="M28.962 34.084a.906.906 0 0 1-.907.906H11.743a.907.907 0 0 1 0-1.812h16.312a.906.906 0 0 1 .907.906Zm8.595-13.885a.905.905 0 0 1-.437.621l-17.15 9.974a4.504 4.504 0 0 1-5.377-.612l-4.27-4.003a1.812 1.812 0 0 1 .525-2.989l1.898-.813a.907.907 0 0 1 .714 0l2.757 1.181 1.692-.966-2.546-2.291a1.814 1.814 0 0 1 .499-3.014l1.869-.8a.905.905 0 0 1 .643-.027l6.406 2.135 4.671-2.748a4.508 4.508 0 0 1 5.805 1.037l2.111 2.58a.906.906 0 0 1 .19.736Zm-2.267-.41-1.438-1.759a2.704 2.704 0 0 0-3.483-.622l-5.026 2.957a.905.905 0 0 1-.746.079l-6.47-2.157-1.552.665 3.477 3.13a.905.905 0 0 1-.156 1.46l-3.172 1.813a.905.905 0 0 1-.807.046l-2.815-1.206-1.54.66 4.27 4.004a2.702 2.702 0 0 0 3.226.367l16.232-9.438Z"/>
  </g>
  <path fill="#6A67EA" d="M45.047 29.745c.676.177 1.37-.227 1.51-.912a23.512 23.512 0 1 0-46.014.247c.147.683.846 1.08 1.52.895.674-.184 1.067-.879.924-1.562a20.982 20.982 0 1 1 41.12-.22c-.136.685.264 1.375.94 1.552Z"/>
  <defs>
    <clipPath id="a">
      <path fill="#fff" d="M0 0h29v29H0z" transform="translate(9.024 9.615)"/>
    </clipPath>
  </defs>
</svg>
