<svg xmlns="http://www.w3.org/2000/svg" width="16" height="17" fill="none" viewBox="0 0 16 17">
  <g clip-path="url(#a)">
    <path fill="#0600FF" fill-rule="evenodd" d="M10.529.72a.5.5 0 0 1 .5.5v.565c.974.067 1.782.4 2.354.974.625.627.954 1.529.95 2.611v6.082c0 2.221-1.41 3.601-3.68 3.601H5.014c-2.27 0-3.68-1.399-3.68-3.652V5.37c0-2.095 1.257-3.44 3.31-3.584V1.22a.5.5 0 0 1 1 0v.553h4.385V1.22a.5.5 0 0 1 .5-.5Zm2.804 5.936h-11v4.745c0 1.711.952 2.652 2.681 2.652h5.639c1.728 0 2.68-.924 2.68-2.601V6.656Zm-2.532 4.195a.5.5 0 1 1-.503.5c0-.276.22-.5.497-.5h.006Zm-2.959 0a.5.5 0 1 1-.502.5c0-.276.22-.5.496-.5h.006Zm-2.964 0a.5.5 0 0 1 0 1 .503.503 0 0 1-.503-.5c0-.276.22-.5.497-.5h.006ZM10.8 8.26a.5.5 0 1 1-.503.5c0-.276.22-.5.497-.5h.006Zm-2.959 0a.5.5 0 1 1-.502.5c0-.276.22-.5.496-.5h.006Zm-2.964 0a.5.5 0 0 1 0 1 .503.503 0 0 1-.503-.5c0-.276.22-.5.497-.5h.006Zm5.15-5.487H5.644v.641a.5.5 0 0 1-1 0v-.626c-1.493.125-2.31 1.03-2.31 2.58v.288h11v-.287c.003-.824-.218-1.464-.658-1.904-.385-.386-.95-.617-1.646-.677v.626a.5.5 0 0 1-1 0v-.641Z" clip-rule="evenodd"/>
  </g>
  <defs>
    <clipPath id="a">
      <path fill="#fff" d="M0 0h16v16H0z" transform="translate(0 .053)"/>
    </clipPath>
  </defs>
</svg>
