<svg xmlns="http://www.w3.org/2000/svg" width="375" height="423" fill="none" viewBox="0 0 375 423">
  <g filter="url(#a)">
    <path fill="#fff" fill-rule="evenodd" d="M173.611 97H51.024c-9.941 0-18 8.059-18 18v140.984c0 9.941 8.059 18 18 18h121.988c0-7.463 6.05-13.512 13.512-13.512 7.463 0 13.512 6.049 13.512 13.512h121.988c9.941 0 18-8.059 18-18V115c0-9.941-8.059-18-18-18H200.162c-1.184 6.253-6.678 10.982-13.275 10.982-6.598 0-12.092-4.729-13.276-10.982ZM338.94 206.851h-1.002v1h1.002v-1Zm-3.005 0h-2.004v1h2.004v-1Zm-4.008 0h-2.004v1h2.004v-1Zm-4.007 0h-2.004v1h2.004v-1Zm-4.008 0h-2.003v1h2.003v-1Zm-4.007 0h-2.004v1h2.004v-1Zm-4.007 0h-2.004v1h2.004v-1Zm-4.008 0h-2.003v1h2.003v-1Zm-4.007 0h-2.004v1h2.004v-1Zm-4.007 0h-2.004v1h2.004v-1Zm-4.008 0h-2.003v1h2.003v-1Zm-4.007 0h-2.004v1h2.004v-1Zm-4.008 0h-2.003v1h2.003v-1Zm-4.007 0h-2.004v1h2.004v-1Zm-4.007 0h-2.004v1h2.004v-1Zm-4.008 0h-2.003v1h2.003v-1Zm-4.007 0h-2.004v1h2.004v-1Zm-4.007 0h-2.004v1h2.004v-1Zm-4.008 0h-2.003v1h2.003v-1Zm-4.007 0h-2.004v1h2.004v-1Zm-4.008 0h-2.003v1h2.003v-1Zm-4.007 0h-2.004v1h2.004v-1Zm-4.007 0h-2.004v1h2.004v-1Zm-4.008 0h-2.003v1h2.003v-1Zm-4.007 0h-2.004v1h2.004v-1Zm-4.007 0h-2.004v1h2.004v-1Zm-4.008 0h-2.003v1h2.003v-1Zm-4.007 0h-2.004v1h2.004v-1Zm-4.007 0h-2.004v1h2.004v-1Zm-4.008 0h-2.004v1h2.004v-1Zm-4.007 0h-2.004v1h2.004v-1Zm-4.008 0h-2.003v1h2.003v-1Zm-4.007 0h-2.004v1h2.004v-1Zm-4.007 0h-2.004v1h2.004v-1Zm-4.008 0h-2.003v1h2.003v-1Zm-4.007 0h-2.004v1h2.004v-1Zm-4.008 0h-2.003v1h2.003v-1Zm-4.007 0h-2.004v1h2.004v-1Zm-4.007 0h-2.004v1h2.004v-1Zm-4.008 0h-2.003v1h2.003v-1Zm-4.007 0h-2.004v1h2.004v-1Zm-4.007 0h-2.004v1h2.004v-1Zm-4.008 0h-2.004v1h2.004v-1Zm-4.007 0h-2.004v1h2.004v-1Zm-4.008 0h-2.003v1h2.003v-1Zm-4.007 0h-2.004v1h2.004v-1Zm-4.007 0h-2.004v1h2.004v-1Zm-4.008 0h-2.003v1h2.003v-1Zm-4.007 0h-2.004v1h2.004v-1Zm-4.008 0h-2.003v1h2.003v-1Zm-4.007 0h-2.004v1h2.004v-1Zm-4.007 0h-2.004v1h2.004v-1Zm-4.008 0h-2.003v1h2.003v-1Zm-4.007 0h-2.004v1h2.004v-1Zm-4.007 0h-2.004v1h2.004v-1Zm-4.008 0h-2.004v1h2.004v-1Zm-4.007 0h-2.004v1h2.004v-1Zm-4.008 0h-2.003v1h2.003v-1Zm-4.007 0h-2.004v1h2.004v-1Zm-4.007 0h-2.004v1h2.004v-1Zm-4.008 0h-2.003v1h2.003v-1Zm-4.007 0h-2.004v1h2.004v-1Zm-4.008 0h-2.003v1h2.004v-1Zm-4.007 0h-2.004v1h2.004v-1Zm-4.007 0h-2.004v1h2.004v-1Zm-4.008 0H77.46v1h2.003v-1Zm-4.007 0h-2.004v1h2.004v-1Zm-4.007 0h-2.004v1h2.004v-1Zm-4.008 0h-2.004v1h2.004v-1Zm-4.007 0h-2.004v1h2.004v-1Zm-4.008 0h-2.003v1h2.003v-1Zm-4.007 0h-2.004v1h2.004v-1Zm-4.007 0h-2.004v1h2.004v-1Zm-4.008 0H45.4v1h2.003v-1Zm-4.007 0h-2.004v1h2.004v-1Zm-4.008 0h-2.003v1h2.004v-1Zm-4.007 0H34.38v1h1.001v-1Z" clip-rule="evenodd"/>
  </g>
  <defs>
    <filter id="a" width="553" height="422.984" x="-89.976" y="0" color-interpolation-filters="sRGB" filterUnits="userSpaceOnUse">
      <feFlood flood-opacity="0" result="BackgroundImageFix"/>
      <feColorMatrix in="SourceAlpha" result="hardAlpha" values="0 0 0 0 0 0 0 0 0 0 0 0 0 0 0 0 0 0 127 0"/>
      <feMorphology in="SourceAlpha" operator="dilate" radius="2" result="effect1_dropShadow_2_1944"/>
      <feOffset dy="26"/>
      <feGaussianBlur stdDeviation="60.5"/>
      <feComposite in2="hardAlpha" operator="out"/>
      <feColorMatrix values="0 0 0 0 0.508333 0 0 0 0 0.508333 0 0 0 0 0.508333 0 0 0 0.13 0"/>
      <feBlend in2="BackgroundImageFix" result="effect1_dropShadow_2_1944"/>
      <feBlend in="SourceGraphic" in2="effect1_dropShadow_2_1944" result="shape"/>
    </filter>
  </defs>
</svg>
