<svg xmlns="http://www.w3.org/2000/svg" width="341" height="201" fill="none" viewBox="0 0 341 201">
  <mask id="a" width="308" height="177" x="33" y="24" maskUnits="userSpaceOnUse" style="mask-type:alpha">
    <path fill="#fff" fill-rule="evenodd" d="M51.024 24h122.587c1.184 6.253 6.678 10.982 13.276 10.982 6.597 0 12.091-4.729 13.275-10.982h121.862c9.941 0 18 8.059 18 18v140.984c0 9.941-8.059 18-18 18H200.036c0-7.463-6.049-13.512-13.512-13.512-7.462 0-13.512 6.049-13.512 13.512H51.024c-9.941 0-18-8.059-18-18V42c0-9.941 8.059-18 18-18Z" clip-rule="evenodd"/>
  </mask>
  <g mask="url(#a)">
    <path stroke="#FB9157" stroke-opacity=".4" stroke-width=".2" d="M-1.475.78c19.383 12.614 70.638 40.498 77.53 31.803 8.614-10.87 17.844-28.38 31.689-3.22 13.844 25.16-1.846 38.847 25.535 24.153 27.381-14.693 31.996-20.732 46.764-3.824 14.767 16.908-2.462 34.822 37.226 19.323 39.688-15.499 39.688-36.23 59.07-15.499 19.383 20.732 5.846 27.375 32.612 16.505 26.766-10.869 15.383-20.329 23.382-25.16 7.999-4.83-3.692-5.434 7.691-7.045"/>
    <path stroke="#FB9157" stroke-opacity=".4" stroke-width=".2" d="M-1.475 2.263c19.383 12.613 70.638 40.497 77.53 31.802 8.614-10.87 17.844-28.38 31.689-3.22 13.844 25.16-1.846 38.847 25.535 24.153 27.381-14.693 31.996-20.732 46.764-3.824 14.767 16.908-2.462 34.822 37.226 19.323 39.688-15.499 39.688-36.23 59.07-15.499 19.383 20.732 5.846 27.374 32.612 16.505 26.766-10.869 15.383-20.33 23.382-25.16 7.999-4.83-3.692-5.434 7.691-7.045"/>
    <path stroke="#FB9157" stroke-opacity=".4" stroke-width=".2" d="M-1.475 3.745c19.383 12.613 70.638 40.497 77.53 31.802 8.614-10.87 17.844-28.38 31.689-3.22 13.844 25.16-1.846 38.847 25.535 24.153 27.381-14.693 31.996-20.732 46.764-3.824 14.767 16.907-2.462 34.821 37.226 19.323 39.688-15.499 39.688-36.23 59.07-15.499 19.383 20.732 5.846 27.374 32.612 16.505 26.766-10.869 15.383-20.33 23.382-25.16 7.999-4.83-3.692-5.434 7.691-7.045"/>
    <path stroke="#FB9157" stroke-opacity=".4" stroke-width=".2" d="M-1.475 5.227c19.383 12.613 70.638 40.497 77.53 31.802 8.614-10.87 17.844-28.38 31.689-3.22 13.844 25.16-1.846 38.847 25.535 24.153 27.381-14.693 31.996-20.732 46.764-3.824 14.767 16.907-2.462 34.821 37.226 19.323 39.688-15.499 39.688-36.23 59.07-15.499 19.383 20.732 5.846 27.374 32.612 16.505 26.766-10.869 15.383-20.33 23.382-25.16 7.999-4.83-3.692-5.435 7.691-7.045"/>
    <path stroke="#FB9157" stroke-opacity=".4" stroke-width=".2" d="M-1.475 6.708c19.383 12.614 70.638 40.498 77.53 31.803 8.614-10.87 17.844-28.38 31.689-3.22 13.844 25.16-1.846 38.847 25.535 24.153 27.381-14.694 31.996-20.732 46.764-3.824 14.767 16.907-2.462 34.821 37.226 19.323 39.688-15.499 39.688-36.23 59.07-15.499 19.383 20.732 5.846 27.374 32.612 16.505 26.766-10.87 15.383-20.33 23.382-25.16 7.999-4.83-3.692-5.435 7.691-7.045"/>
    <path stroke="#FB9157" stroke-opacity=".4" stroke-width=".2" d="M-1.475 8.19c19.383 12.614 70.638 40.498 77.53 31.803 8.614-10.87 17.844-28.38 31.689-3.22 13.844 25.16-1.846 38.846 25.535 24.153 27.381-14.694 31.996-20.732 46.764-3.824 14.767 16.907-2.462 34.821 37.226 19.323 39.688-15.499 39.688-36.23 59.07-15.499 19.383 20.732 5.846 27.374 32.612 16.505 26.766-10.87 15.383-20.33 23.382-25.16 7.999-4.83-3.692-5.435 7.691-7.045"/>
    <path stroke="#FB9157" stroke-opacity=".4" stroke-width=".2" d="M-1.475 9.672c19.383 12.614 70.638 40.498 77.53 31.803 8.614-10.87 17.844-28.38 31.689-3.22 13.844 25.16-1.846 38.846 25.535 24.153 27.381-14.694 31.996-20.732 46.764-3.824 14.767 16.907-2.462 34.821 37.226 19.322 39.688-15.498 39.688-36.23 59.07-15.498 19.383 20.732 5.846 27.374 32.612 16.505 26.766-10.87 15.383-20.33 23.382-25.16 7.999-4.83-3.692-5.435 7.691-7.045"/>
    <path stroke="#FB9157" stroke-opacity=".4" stroke-width=".2" d="M-1.475 11.154c19.383 12.614 70.638 40.498 77.53 31.803 8.614-10.87 17.844-28.381 31.689-3.22 13.844 25.16-1.846 38.846 25.535 24.153 27.381-14.694 31.996-20.732 46.764-3.825 14.767 16.908-2.462 34.822 37.226 19.323 39.688-15.498 39.688-36.23 59.07-15.498 19.383 20.732 5.846 27.374 32.612 16.505 26.766-10.87 15.383-20.33 23.382-25.16 7.999-4.831-3.692-5.435 7.691-7.045"/>
    <path stroke="#FB9157" stroke-opacity=".4" stroke-width=".2" d="M-1.475 12.636C17.908 25.25 69.163 53.134 76.055 44.44c8.614-10.87 17.844-28.381 31.689-3.22 13.844 25.16-1.846 38.846 25.535 24.153 27.381-14.694 31.996-20.732 46.764-3.825 14.767 16.908-2.462 34.822 37.226 19.323 39.688-15.498 39.688-36.23 59.07-15.498 19.383 20.732 5.846 27.374 32.612 16.505 26.766-10.87 15.383-20.33 23.382-25.16 7.999-4.831-3.692-5.435 7.691-7.045"/>
    <path stroke="#FB9157" stroke-opacity=".4" stroke-width=".2" d="M-1.475 14.118c19.383 12.614 70.638 40.498 77.53 31.802 8.614-10.869 17.844-28.38 31.689-3.22 13.844 25.16-1.846 38.847 25.535 24.154 27.381-14.694 31.996-20.732 46.764-3.825 14.767 16.908-2.462 34.822 37.226 19.323 39.688-15.498 39.688-36.23 59.07-15.498 19.383 20.732 5.846 27.374 32.612 16.505 26.766-10.87 15.383-20.33 23.382-25.16 7.999-4.831-3.692-5.435 7.691-7.045"/>
    <path stroke="#FB9157" stroke-opacity=".4" stroke-width=".2" d="M-1.475 15.6c19.383 12.614 70.638 40.498 77.53 31.802 8.614-10.869 17.844-28.38 31.689-3.22 13.844 25.16-1.846 38.847 25.535 24.154 27.381-14.694 31.996-20.732 46.764-3.825 14.767 16.908-2.462 34.822 37.226 19.323 39.688-15.498 39.688-36.23 59.07-15.498 19.383 20.732 5.846 27.374 32.612 16.505 26.766-10.87 15.383-20.33 23.382-25.16 7.999-4.831-3.692-5.435 7.691-7.045"/>
    <path stroke="#FB9157" stroke-opacity=".4" stroke-width=".2" d="M-1.475 17.082c19.383 12.614 70.638 40.498 77.53 31.802 8.614-10.869 17.844-28.38 31.689-3.22 13.844 25.16-1.846 38.847 25.535 24.154 27.381-14.694 31.996-20.732 46.764-3.825 14.767 16.908-2.462 34.822 37.226 19.323 39.688-15.498 39.688-36.23 59.07-15.498 19.383 20.731 5.846 27.374 32.612 16.505 26.766-10.87 15.383-20.33 23.382-25.16 7.999-4.831-3.692-5.435 7.691-7.045"/>
    <path stroke="#FB9157" stroke-opacity=".4" stroke-width=".2" d="M-1.475 18.564c19.383 12.614 70.638 40.498 77.53 31.802 8.614-10.869 17.844-28.38 31.689-3.22 13.844 25.16-1.846 38.847 25.535 24.153 27.381-14.693 31.996-20.731 46.764-3.824 14.767 16.908-2.462 34.822 37.226 19.323 39.688-15.499 39.688-36.23 59.07-15.499 19.383 20.732 5.846 27.375 32.612 16.505 26.766-10.869 15.383-20.329 23.382-25.16 7.999-4.83-3.692-5.434 7.691-7.044"/>
    <path stroke="#FB9157" stroke-opacity=".4" stroke-width=".2" d="M-1.475 20.046c19.383 12.614 70.638 40.498 77.53 31.802 8.614-10.869 17.844-28.38 31.689-3.22 13.844 25.16-1.846 38.847 25.535 24.153 27.381-14.693 31.996-20.732 46.764-3.824 14.767 16.908-2.462 34.822 37.226 19.323 39.688-15.499 39.688-36.23 59.07-15.499 19.383 20.732 5.846 27.375 32.612 16.505 26.766-10.869 15.383-20.329 23.382-25.16 7.999-4.83-3.692-5.434 7.691-7.045"/>
    <path stroke="#FB9157" stroke-opacity=".4" stroke-width=".2" d="M-1.475 21.528c19.383 12.614 70.638 40.498 77.53 31.802 8.614-10.869 17.844-28.38 31.689-3.22 13.844 25.16-1.846 38.847 25.535 24.154 27.381-14.694 31.996-20.732 46.764-3.825 14.767 16.908-2.462 34.822 37.226 19.323 39.688-15.498 39.688-36.23 59.07-15.498 19.383 20.732 5.846 27.374 32.612 16.505 26.766-10.87 15.383-20.33 23.382-25.16 7.999-4.831-3.692-5.435 7.691-7.045"/>
    <path stroke="#FB9157" stroke-opacity=".4" stroke-width=".2" d="M-1.475 23.01c19.383 12.614 70.638 40.498 77.53 31.802 8.614-10.869 17.844-28.38 31.689-3.22 13.844 25.16-1.846 38.847 25.535 24.154 27.381-14.694 31.996-20.732 46.764-3.825 14.767 16.908-2.462 34.822 37.226 19.323 39.688-15.498 39.688-36.23 59.07-15.498 19.383 20.732 5.846 27.374 32.612 16.505 26.766-10.87 15.383-20.33 23.382-25.16 7.999-4.831-3.692-5.435 7.691-7.045"/>
    <path stroke="#FB9157" stroke-opacity=".4" stroke-width=".2" d="M-1.475 24.492c19.383 12.613 70.638 40.498 77.53 31.802 8.614-10.869 17.844-28.38 31.689-3.22 13.844 25.16-1.846 38.847 25.535 24.154 27.381-14.694 31.996-20.732 46.764-3.825 14.767 16.908-2.462 34.822 37.226 19.323 39.688-15.498 39.688-36.23 59.07-15.498 19.383 20.731 5.846 27.374 32.612 16.505 26.766-10.87 15.383-20.33 23.382-25.16 7.999-4.831-3.692-5.435 7.691-7.045"/>
    <path stroke="#FB9157" stroke-opacity=".4" stroke-width=".2" d="M-1.475 25.974c19.383 12.613 70.638 40.498 77.53 31.802 8.614-10.869 17.844-28.38 31.689-3.22 13.844 25.16-1.846 38.847 25.535 24.153 27.381-14.693 31.996-20.732 46.764-3.824 14.767 16.908-2.462 34.822 37.226 19.323 39.688-15.499 39.688-36.23 59.07-15.499 19.383 20.732 5.846 27.375 32.612 16.505 26.766-10.869 15.383-20.329 23.382-25.16 7.999-4.83-3.692-5.434 7.691-7.044"/>
    <path stroke="#FB9157" stroke-opacity=".4" stroke-width=".2" d="M-1.475 27.456c19.383 12.613 70.638 40.498 77.53 31.802 8.614-10.869 17.844-28.38 31.689-3.22 13.844 25.16-1.846 38.847 25.535 24.153 27.381-14.693 31.996-20.732 46.764-3.824 14.767 16.908-2.462 34.822 37.226 19.323 39.688-15.499 39.688-36.23 59.07-15.499 19.383 20.732 5.846 27.375 32.612 16.505 26.766-10.869 15.383-20.329 23.382-25.16 7.999-4.83-3.692-5.434 7.691-7.044"/>
    <path stroke="#FB9157" stroke-opacity=".4" stroke-width=".2" d="M-1.475 28.938C17.908 41.55 69.163 69.435 76.055 60.74c8.614-10.87 17.844-28.38 31.689-3.22 13.844 25.16-1.846 38.847 25.535 24.153 27.381-14.693 31.996-20.732 46.764-3.824 14.767 16.907-2.462 34.822 37.226 19.323 39.688-15.499 39.688-36.23 59.07-15.499 19.383 20.732 5.846 27.374 32.612 16.505 26.766-10.869 15.383-20.329 23.382-25.16 7.999-4.83-3.692-5.434 7.691-7.045"/>
    <path stroke="#FB9157" stroke-opacity=".4" stroke-width=".2" d="M-1.475 30.42c19.383 12.613 70.638 40.497 77.53 31.802 8.614-10.87 17.844-28.38 31.689-3.22 13.844 25.16-1.846 38.847 25.535 24.153 27.381-14.693 31.996-20.732 46.764-3.824 14.767 16.907-2.462 34.821 37.226 19.323 39.688-15.499 39.688-36.23 59.07-15.499 19.383 20.732 5.846 27.374 32.612 16.505 26.766-10.869 15.383-20.33 23.382-25.16 7.999-4.83-3.692-5.434 7.691-7.045"/>
    <path stroke="#FB9157" stroke-opacity=".4" stroke-width=".2" d="M-1.475 31.902c19.383 12.613 70.638 40.497 77.53 31.802 8.614-10.87 17.844-28.38 31.689-3.22 13.844 25.16-1.846 38.847 25.535 24.153 27.381-14.693 31.996-20.732 46.764-3.824 14.767 16.907-2.462 34.821 37.226 19.323 39.688-15.499 39.688-36.23 59.07-15.499 19.383 20.732 5.846 27.374 32.612 16.505 26.766-10.869 15.383-20.33 23.382-25.16 7.999-4.83-3.692-5.434 7.691-7.045"/>
    <path stroke="#FB9157" stroke-opacity=".4" stroke-width=".2" d="M-1.475 33.383c19.383 12.614 70.638 40.498 77.53 31.803 8.614-10.87 17.844-28.38 31.689-3.22 13.844 25.16-1.846 38.847 25.535 24.153 27.381-14.693 31.996-20.732 46.764-3.824 14.767 16.907-2.462 34.821 37.226 19.323 39.688-15.499 39.688-36.23 59.07-15.499 19.383 20.732 5.846 27.374 32.612 16.505 26.766-10.869 15.383-20.33 23.382-25.16 7.999-4.83-3.692-5.435 7.691-7.045"/>
    <path stroke="#FB9157" stroke-opacity=".4" stroke-width=".2" d="M-1.475 34.865c19.383 12.614 70.638 40.498 77.53 31.803 8.614-10.87 17.844-28.38 31.689-3.22 13.844 25.16-1.846 38.847 25.535 24.153 27.381-14.694 31.996-20.732 46.764-3.824 14.767 16.907-2.462 34.821 37.226 19.323 39.688-15.499 39.688-36.23 59.07-15.499 19.383 20.732 5.846 27.374 32.612 16.505 26.766-10.87 15.383-20.33 23.382-25.16 7.999-4.83-3.692-5.435 7.691-7.045"/>
    <path stroke="#FB9157" stroke-opacity=".4" stroke-width=".2" d="M-1.475 36.347c19.383 12.614 70.638 40.498 77.53 31.803 8.614-10.87 17.844-28.38 31.689-3.22 13.844 25.16-1.846 38.846 25.535 24.153 27.381-14.694 31.996-20.732 46.764-3.824 14.767 16.907-2.462 34.821 37.226 19.323 39.688-15.499 39.688-36.231 59.07-15.499 19.383 20.732 5.846 27.374 32.612 16.505 26.766-10.87 15.383-20.33 23.382-25.16 7.999-4.83-3.692-5.435 7.691-7.045"/>
    <path stroke="#FB9157" stroke-opacity=".4" stroke-width=".2" d="M-1.475 37.83c19.383 12.613 70.638 40.497 77.53 31.802 8.614-10.87 17.844-28.38 31.689-3.22 13.844 25.16-1.846 38.846 25.535 24.153 27.381-14.694 31.996-20.732 46.764-3.824 14.767 16.907-2.462 34.821 37.226 19.323 39.688-15.5 39.688-36.231 59.07-15.5 19.383 20.733 5.846 27.375 32.612 16.506 26.766-10.87 15.383-20.33 23.382-25.16 7.999-4.83-3.692-5.435 7.691-7.045"/>
    <path stroke="#FB9157" stroke-opacity=".4" stroke-width=".2" d="M-1.475 39.311c19.383 12.614 70.638 40.498 77.53 31.803 8.614-10.87 17.844-28.381 31.689-3.22 13.844 25.16-1.846 38.846 25.535 24.153 27.381-14.694 31.996-20.732 46.764-3.825 14.767 16.908-2.462 34.822 37.226 19.323 39.688-15.498 39.688-36.23 59.07-15.498 19.383 20.732 5.846 27.374 32.612 16.505 26.766-10.87 15.383-20.33 23.382-25.16 7.999-4.831-3.692-5.435 7.691-7.045"/>
    <path stroke="#FB9157" stroke-opacity=".4" stroke-width=".2" d="M-1.475 40.793c19.383 12.614 70.638 40.498 77.53 31.803 8.614-10.87 17.844-28.381 31.689-3.22 13.844 25.16-1.846 38.846 25.535 24.153 27.381-14.694 31.996-20.732 46.764-3.825 14.767 16.908-2.462 34.822 37.226 19.323 39.688-15.498 39.688-36.23 59.07-15.498 19.383 20.732 5.846 27.374 32.612 16.505 26.766-10.87 15.383-20.33 23.382-25.16 7.999-4.831-3.692-5.435 7.691-7.045"/>
    <path stroke="#FB9157" stroke-opacity=".4" stroke-width=".2" d="M-1.475 42.275c19.383 12.614 70.638 40.498 77.53 31.803 8.614-10.87 17.844-28.381 31.689-3.221 13.844 25.16-1.846 38.847 25.535 24.154 27.381-14.694 31.996-20.732 46.764-3.825 14.767 16.908-2.462 34.822 37.226 19.323 39.688-15.498 39.688-36.23 59.07-15.498 19.383 20.732 5.846 27.374 32.612 16.505 26.766-10.869 15.383-20.33 23.382-25.16 7.999-4.831-3.692-5.435 7.691-7.045"/>
    <path stroke="#FB9157" stroke-opacity=".4" stroke-width=".2" d="M-1.475 43.757c19.383 12.614 70.638 40.498 77.53 31.802 8.614-10.869 17.844-28.38 31.689-3.22 13.844 25.16-1.846 38.847 25.535 24.154 27.381-14.694 31.996-20.732 46.764-3.825 14.767 16.908-2.462 34.822 37.226 19.323 39.688-15.498 39.688-36.23 59.07-15.498 19.383 20.732 5.846 27.374 32.612 16.505 26.766-10.87 15.383-20.33 23.382-25.16 7.999-4.831-3.692-5.435 7.691-7.045"/>
    <path stroke="#FB9157" stroke-opacity=".4" stroke-width=".2" d="M-1.475 45.239c19.383 12.614 70.638 40.498 77.53 31.802 8.614-10.869 17.844-28.38 31.689-3.22 13.844 25.16-1.846 38.847 25.535 24.154 27.381-14.694 31.996-20.732 46.764-3.825 14.767 16.908-2.462 34.822 37.226 19.323 39.688-15.498 39.688-36.23 59.07-15.498 19.383 20.731 5.846 27.374 32.612 16.505 26.766-10.87 15.383-20.33 23.382-25.16 7.999-4.831-3.692-5.435 7.691-7.045"/>
    <path stroke="#FB9157" stroke-opacity=".4" stroke-width=".2" d="M-1.475 46.72c19.383 12.614 70.638 40.499 77.53 31.803 8.614-10.869 17.844-28.38 31.689-3.22 13.844 25.16-1.846 38.847 25.535 24.154 27.381-14.694 31.996-20.732 46.764-3.825 14.767 16.908-2.462 34.822 37.226 19.323 39.688-15.498 39.688-36.23 59.07-15.498 19.383 20.731 5.846 27.374 32.612 16.505 26.766-10.87 15.383-20.33 23.382-25.16 7.999-4.831-3.692-5.435 7.691-7.045"/>
    <path stroke="#FB9157" stroke-opacity=".4" stroke-width=".2" d="M-1.475 48.203C17.908 60.816 69.163 88.7 76.055 80.005c8.614-10.869 17.844-28.38 31.689-3.22 13.844 25.16-1.846 38.847 25.535 24.153 27.381-14.693 31.996-20.731 46.764-3.824 14.767 16.908-2.462 34.822 37.226 19.323 39.688-15.499 39.688-36.23 59.07-15.499 19.383 20.732 5.846 27.375 32.612 16.505 26.766-10.869 15.383-20.329 23.382-25.16 7.999-4.83-3.692-5.434 7.691-7.044"/>
    <path stroke="#FB9157" stroke-opacity=".4" stroke-width=".2" d="M-1.475 49.685c19.383 12.613 70.638 40.498 77.53 31.802 8.614-10.869 17.844-28.38 31.689-3.22 13.844 25.16-1.846 38.847 25.535 24.153 27.381-14.693 31.996-20.732 46.764-3.824 14.767 16.908-2.462 34.822 37.226 19.323 39.688-15.499 39.688-36.23 59.07-15.499 19.383 20.732 5.846 27.375 32.612 16.505 26.766-10.869 15.383-20.329 23.382-25.16 7.999-4.83-3.692-5.434 7.691-7.044"/>
    <path stroke="#FB9157" stroke-opacity=".4" stroke-width=".2" d="M-1.475 51.167c19.383 12.613 70.638 40.497 77.53 31.802 8.614-10.87 17.844-28.38 31.689-3.22 13.844 25.16-1.846 38.847 25.535 24.153 27.381-14.693 31.996-20.732 46.764-3.824 14.767 16.908-2.462 34.822 37.226 19.323 39.688-15.499 39.688-36.23 59.07-15.499 19.383 20.732 5.846 27.374 32.612 16.505 26.766-10.869 15.383-20.329 23.382-25.16 7.999-4.83-3.692-5.434 7.691-7.045"/>
    <path stroke="#FB9157" stroke-opacity=".4" stroke-width=".2" d="M-1.475 52.649c19.383 12.613 70.638 40.497 77.53 31.802 8.614-10.87 17.844-28.38 31.689-3.22 13.844 25.16-1.846 38.847 25.535 24.153 27.381-14.693 31.996-20.732 46.764-3.824 14.767 16.907-2.462 34.821 37.226 19.323 39.688-15.499 39.688-36.23 59.07-15.499 19.383 20.732 5.846 27.374 32.612 16.505 26.766-10.869 15.383-20.329 23.382-25.16 7.999-4.83-3.692-5.434 7.691-7.045"/>
    <path stroke="#FB9157" stroke-opacity=".4" stroke-width=".2" d="M-1.475 54.13c19.383 12.614 70.638 40.498 77.53 31.803 8.614-10.87 17.844-28.38 31.689-3.22 13.844 25.16-1.846 38.847 25.535 24.153 27.381-14.693 31.996-20.732 46.764-3.824 14.767 16.907-2.462 34.821 37.226 19.323 39.688-15.499 39.688-36.23 59.07-15.499 19.383 20.732 5.846 27.374 32.612 16.505 26.766-10.869 15.383-20.329 23.382-25.16 7.999-4.83-3.692-5.434 7.691-7.045"/>
    <path stroke="#FB9157" stroke-opacity=".4" stroke-width=".2" d="M-1.475 55.612c19.383 12.614 70.638 40.498 77.53 31.803 8.614-10.87 17.844-28.38 31.689-3.22 13.844 25.159-1.846 38.847 25.535 24.153 27.381-14.693 31.996-20.732 46.764-3.824 14.767 16.907-2.462 34.821 37.226 19.323 39.688-15.499 39.688-36.23 59.07-15.499 19.383 20.732 5.846 27.374 32.612 16.505 26.766-10.869 15.383-20.329 23.382-25.16 7.999-4.83-3.692-5.435 7.691-7.045"/>
    <path stroke="#FB9157" stroke-opacity=".4" stroke-width=".2" d="M-1.475 57.094c19.383 12.614 70.638 40.498 77.53 31.803 8.614-10.87 17.844-28.38 31.689-3.22 13.844 25.159-1.846 38.847 25.535 24.153 27.381-14.694 31.996-20.732 46.764-3.824 14.767 16.907-2.462 34.821 37.226 19.323 39.688-15.499 39.688-36.23 59.07-15.499 19.383 20.732 5.846 27.374 32.612 16.505 26.766-10.869 15.383-20.329 23.382-25.16 7.999-4.83-3.692-5.435 7.691-7.045"/>
    <path stroke="#FB9157" stroke-opacity=".4" stroke-width=".2" d="M-1.475 58.576C17.908 71.19 69.163 99.074 76.055 90.38c8.614-10.87 17.844-28.38 31.689-3.22 13.844 25.159-1.846 38.846 25.535 24.153 27.381-14.694 31.996-20.732 46.764-3.824 14.767 16.907-2.462 34.821 37.226 19.323 39.688-15.499 39.688-36.231 59.07-15.499 19.383 20.732 5.846 27.374 32.612 16.505 26.766-10.869 15.383-20.329 23.382-25.16 7.999-4.83-3.692-5.435 7.691-7.045"/>
    <path stroke="#FB9157" stroke-opacity=".4" stroke-width=".2" d="M-1.475 60.059c19.383 12.613 70.638 40.497 77.53 31.802 8.614-10.87 17.844-28.38 31.689-3.22 13.844 25.16-1.846 38.847 25.535 24.153 27.381-14.693 31.996-20.732 46.764-3.824 14.767 16.907-2.462 34.821 37.226 19.323 39.688-15.499 39.688-36.23 59.07-15.499 19.383 20.732 5.846 27.374 32.612 16.505 26.766-10.869 15.383-20.329 23.382-25.16 7.999-4.83-3.692-5.434 7.691-7.045"/>
    <path stroke="#FB9157" stroke-opacity=".4" stroke-width=".2" d="M-1.475 61.54c19.383 12.614 70.638 40.498 77.53 31.803 8.614-10.87 17.844-28.38 31.689-3.22 13.844 25.159-1.846 38.847 25.535 24.153 27.381-14.693 31.996-20.732 46.764-3.824 14.767 16.907-2.462 34.821 37.226 19.323 39.688-15.499 39.688-36.23 59.07-15.499 19.383 20.732 5.846 27.374 32.612 16.505 26.766-10.869 15.383-20.329 23.382-25.16 7.999-4.831-3.692-5.435 7.691-7.045"/>
    <path stroke="#FB9157" stroke-opacity=".4" stroke-width=".2" d="M-1.475 63.023c19.383 12.613 70.638 40.497 77.53 31.802 8.614-10.87 17.844-28.38 31.689-3.22 13.844 25.159-1.846 38.847 25.535 24.153 27.381-14.693 31.996-20.732 46.764-3.824 14.767 16.907-2.462 34.821 37.226 19.323 39.688-15.499 39.688-36.23 59.07-15.499 19.383 20.732 5.846 27.374 32.612 16.505 26.766-10.869 15.383-20.329 23.382-25.16 7.999-4.831-3.692-5.435 7.691-7.045"/>
    <path stroke="#FB9157" stroke-opacity=".4" stroke-width=".2" d="M-1.475 64.504c19.383 12.614 70.638 40.498 77.53 31.803 8.614-10.87 17.844-28.38 31.689-3.22 13.844 25.159-1.846 38.846 25.535 24.153 27.381-14.694 31.996-20.732 46.764-3.824 14.767 16.907-2.462 34.821 37.226 19.323 39.688-15.499 39.688-36.231 59.07-15.499 19.383 20.732 5.846 27.374 32.612 16.505 26.766-10.869 15.383-20.329 23.382-25.16 7.999-4.831-3.692-5.435 7.691-7.045"/>
    <path stroke="#FB9157" stroke-opacity=".4" stroke-width=".2" d="M-1.475 65.986C17.908 78.6 69.163 106.484 76.055 97.79c8.614-10.87 17.844-28.38 31.689-3.22 13.844 25.159-1.846 38.846 25.535 24.153 27.381-14.694 31.996-20.732 46.764-3.824 14.767 16.907-2.462 34.821 37.226 19.322 39.688-15.498 39.688-36.23 59.07-15.498 19.383 20.732 5.846 27.374 32.612 16.505 26.766-10.869 15.383-20.329 23.382-25.16 7.999-4.831-3.692-5.435 7.691-7.045"/>
    <path stroke="#FB9157" stroke-opacity=".4" stroke-width=".2" d="M-1.475 67.468c19.383 12.614 70.638 40.498 77.53 31.803 8.614-10.87 17.844-28.381 31.689-3.22 13.844 25.159-1.846 38.846 25.535 24.153 27.381-14.694 31.996-20.732 46.764-3.825 14.767 16.908-2.462 34.822 37.226 19.323 39.688-15.498 39.688-36.23 59.07-15.498 19.383 20.732 5.846 27.374 32.612 16.505 26.766-10.869 15.383-20.33 23.382-25.16 7.999-4.831-3.692-5.435 7.691-7.045"/>
    <path stroke="#FB9157" stroke-opacity=".4" stroke-width=".2" d="M-1.475 68.95c19.383 12.614 70.638 40.498 77.53 31.803 8.614-10.87 17.844-28.381 31.689-3.221 13.844 25.16-1.846 38.847 25.535 24.154 27.381-14.694 31.996-20.732 46.764-3.825 14.767 16.908-2.462 34.822 37.226 19.323 39.688-15.498 39.688-36.23 59.07-15.498 19.383 20.732 5.846 27.374 32.612 16.505 26.766-10.869 15.383-20.33 23.382-25.16 7.999-4.831-3.692-5.435 7.691-7.045"/>
    <path stroke="#FB9157" stroke-opacity=".4" stroke-width=".2" d="M-1.475 70.432c19.383 12.614 70.638 40.498 77.53 31.802 8.614-10.869 17.844-28.38 31.689-3.22 13.844 25.16-1.846 38.847 25.535 24.154 27.381-14.694 31.996-20.732 46.764-3.825 14.767 16.908-2.462 34.822 37.226 19.323 39.688-15.498 39.688-36.23 59.07-15.498 19.383 20.732 5.846 27.374 32.612 16.505 26.766-10.869 15.383-20.33 23.382-25.16 7.999-4.831-3.692-5.435 7.691-7.045"/>
    <path stroke="#FB9157" stroke-opacity=".4" stroke-width=".2" d="M-1.475 71.914c19.383 12.614 70.638 40.498 77.53 31.802 8.614-10.869 17.844-28.38 31.689-3.22 13.844 25.16-1.846 38.847 25.535 24.154 27.381-14.694 31.996-20.732 46.764-3.825 14.767 16.908-2.462 34.822 37.226 19.323 39.688-15.498 39.688-36.23 59.07-15.498 19.383 20.732 5.846 27.374 32.612 16.505 26.766-10.87 15.383-20.33 23.382-25.16 7.999-4.831-3.692-5.435 7.691-7.045"/>
    <path stroke="#FB9157" stroke-opacity=".4" stroke-width=".2" d="M-1.475 73.396c19.383 12.614 70.638 40.498 77.53 31.802 8.614-10.869 17.844-28.38 31.689-3.22 13.844 25.16-1.846 38.847 25.535 24.154 27.381-14.694 31.996-20.732 46.764-3.825 14.767 16.908-2.462 34.822 37.226 19.323 39.688-15.498 39.688-36.23 59.07-15.498 19.383 20.731 5.846 27.374 32.612 16.505 26.766-10.87 15.383-20.33 23.382-25.161 7.999-4.83-3.692-5.434 7.691-7.044"/>
    <path stroke="#FB9157" stroke-opacity=".4" stroke-width=".2" d="M-1.475 74.878c19.383 12.614 70.638 40.498 77.53 31.802 8.614-10.869 17.844-28.38 31.689-3.22 13.844 25.16-1.846 38.847 25.535 24.153 27.381-14.693 31.996-20.731 46.764-3.824 14.767 16.908-2.462 34.822 37.226 19.323 39.688-15.499 39.688-36.23 59.07-15.499 19.383 20.732 5.846 27.375 32.612 16.506 26.766-10.87 15.383-20.33 23.382-25.161 7.999-4.83-3.692-5.434 7.691-7.044"/>
    <path stroke="#FB9157" stroke-opacity=".4" stroke-width=".2" d="M-1.475 76.36c19.383 12.614 70.638 40.498 77.53 31.802 8.614-10.869 17.844-28.38 31.689-3.22 13.844 25.16-1.846 38.847 25.535 24.153 27.381-14.693 31.996-20.732 46.764-3.824 14.767 16.908-2.462 34.822 37.226 19.323 39.688-15.499 39.688-36.231 59.07-15.499 19.383 20.732 5.846 27.375 32.612 16.505 26.766-10.869 15.383-20.329 23.382-25.16 7.999-4.83-3.692-5.434 7.691-7.044"/>
  </g>
</svg>
