<svg xmlns="http://www.w3.org/2000/svg" width="24" height="25" fill="none" viewBox="0 0 24 25">
  <path fill="#6A67EA" d="M9.135 21.134v-3.058c0-.78.637-1.413 1.423-1.413h2.875c.377 0 .74.149 1.006.414.267.265.417.625.417 1v3.057c-.002.325.126.637.356.867.23.23.544.36.87.36h1.962a3.46 3.46 0 0 0 2.443-1A3.41 3.41 0 0 0 21.5 18.94v-8.711c0-.735-.328-1.431-.895-1.902l-6.671-5.29a3.097 3.097 0 0 0-3.949.072L3.467 8.326a2.474 2.474 0 0 0-.967 1.902v8.702c0 1.895 1.547 3.43 3.456 3.43h1.916a1.23 1.23 0 0 0 1.236-1.217l.027-.009Z"/>
</svg>
