<svg xmlns="http://www.w3.org/2000/svg" width="16" height="17" fill="none" viewBox="0 0 16 17">
  <path fill="#0600FF" fill-rule="evenodd" d="m7.203 9.932 2.438 3.955a.334.334 0 0 0 .34.162.34.34 0 0 0 .289-.247l3.049-10.297a.348.348 0 0 0-.09-.35.341.341 0 0 0-.34-.088L2.585 6.084a.34.34 0 0 0-.248.29.343.343 0 0 0 .16.346L6.5 9.222l3.534-3.572a.5.5 0 0 1 .712.704L7.203 9.932Zm2.727 5.121c-.464 0-.89-.236-1.14-.641l-2.585-4.194-4.237-2.65a1.336 1.336 0 0 1-.621-1.33c.073-.536.44-.962.956-1.113l10.304-3.017a1.347 1.347 0 0 1 1.67 1.681l-3.05 10.296a1.331 1.331 0 0 1-1.297.968Z" clip-rule="evenodd"/>
</svg>
