<svg xmlns="http://www.w3.org/2000/svg" width="25" height="25" fill="none" viewBox="0 0 25 25">
  <path fill="#000" fill-rule="evenodd" d="M18.701 4.36c2.232 0 4.048 1.799 4.048 4.008l.001 2.594a.749.749 0 0 1-.75.75c-.787 0-1.427.628-1.427 1.4 0 .772.64 1.4 1.427 1.4a.75.75 0 0 1 .75.75v2.592c0 2.209-1.816 4.007-4.048 4.007H5.298c-2.232 0-4.048-1.798-4.048-4.007v-2.592a.75.75 0 0 1 .75-.75c.787 0 1.427-.628 1.427-1.4 0-.75-.614-1.316-1.427-1.316a.749.749 0 0 1-.75-.75l.001-2.678c0-2.21 1.816-4.007 4.048-4.007h13.402Zm0 1.5h-4.102v1.922a.75.75 0 0 1-1.5 0V5.86h-7.8c-1.405 0-2.548 1.125-2.548 2.507l-.001 2.018c1.267.31 2.177 1.397 2.177 2.726a2.91 2.91 0 0 1-2.177 2.803v1.939c0 1.382 1.143 2.507 2.548 2.507h7.801v-1.489a.75.75 0 1 1 1.5 0v1.489h4.103c1.405 0 2.548-1.125 2.548-2.507v-1.94a2.91 2.91 0 0 1-2.177-2.802c0-1.343.925-2.474 2.177-2.803l-.001-1.941c0-1.382-1.143-2.507-2.548-2.507ZM13.85 9.866a.75.75 0 0 1 .75.75v4.821a.75.75 0 0 1-1.5 0v-4.82a.75.75 0 0 1 .75-.75Z" clip-rule="evenodd"/>
</svg>
